<svg id="Layer_1" data-name="Layer 1" xmlns="http://www.w3.org/2000/svg" viewBox="0 0 350.48 59.44">
  <defs>
    <style>
      .cls-1 {
        fill: #d43747;
      }

      .cls-2 {
        fill: #fff;
      }
    </style>
  </defs>
  <title>mockback_white</title>
  <g>
    <path class="cls-1" d="M8.76,66.18a4.72,4.72,0,0,1-2.28-.59A2,2,0,0,1,5.4,63.78V11A2.86,2.86,0,0,1,6.48,8.42,4,4,0,0,1,8.76,7.7a4.7,4.7,0,0,1,2.2.48,5.5,5.5,0,0,1,1.68,1.41,12.1,12.1,0,0,1,1.48,2.35L26.76,36,39.4,11.94A14.93,14.93,0,0,1,41,9.59a5.5,5.5,0,0,1,1.68-1.41,4.51,4.51,0,0,1,2.12-.48,3.93,3.93,0,0,1,2.36.72,3,3,0,0,1,1,2.56v52.8a2,2,0,0,1-1,1.81,4.86,4.86,0,0,1-4.64,0,2,2,0,0,1-1-1.81v-42L29.24,44.5A4.16,4.16,0,0,1,28,45.9a2.32,2.32,0,0,1-1.36.44,2.46,2.46,0,0,1-1.24-.4A3.49,3.49,0,0,1,24.2,44.5l-12.08-23V63.78a2,2,0,0,1-1,1.81A4.65,4.65,0,0,1,8.76,66.18Z" transform="translate(-5.4 -7.22)"/>
    <path class="cls-1" d="M76.2,66.67a21.37,21.37,0,0,1-8.76-1.73,13.31,13.31,0,0,1-6.16-5.52Q59,55.63,59,49.22V25.14q0-6.39,2.28-10.2a13.42,13.42,0,0,1,6.16-5.52A21.53,21.53,0,0,1,76.2,7.7,21.79,21.79,0,0,1,85,9.42a13.41,13.41,0,0,1,6.2,5.52q2.28,3.81,2.28,10.2V49.22q0,6.41-2.28,10.2A13.3,13.3,0,0,1,85,64.94,21.63,21.63,0,0,1,76.2,66.67Zm0-6.08c3.31,0,5.89-.92,7.76-2.77s2.8-4.7,2.8-8.6V25.14q0-5.84-2.8-8.6a10.58,10.58,0,0,0-7.76-2.76q-5,0-7.72,2.76t-2.76,8.6V49.22c0,3.9.92,6.76,2.76,8.6S72.89,60.59,76.2,60.59Z" transform="translate(-5.4 -7.22)"/>
    <path class="cls-1" d="M120.84,66.67a21,21,0,0,1-8.56-1.73A13.42,13.42,0,0,1,106,59.38q-2.33-3.84-2.32-10.16V25.14q0-6.32,2.36-10.16a13.71,13.71,0,0,1,6.28-5.56,21.15,21.15,0,0,1,8.56-1.72,21.45,21.45,0,0,1,9.28,1.84,14.35,14.35,0,0,1,5.92,5,12.67,12.67,0,0,1,2.08,7.09c0,1.49-.28,2.47-.84,3a3.85,3.85,0,0,1-2.52.71,4,4,0,0,1-2.44-.63,2.25,2.25,0,0,1-.92-1.69,18.53,18.53,0,0,0-.44-2.76,8.36,8.36,0,0,0-1.44-3,8,8,0,0,0-3.12-2.44,12.8,12.8,0,0,0-5.4-1c-3.42,0-6,.92-7.88,2.76s-2.76,4.71-2.76,8.6V49.22c0,3.9.93,6.76,2.8,8.6s4.56,2.77,8.08,2.77a12.4,12.4,0,0,0,5.32-1,7.35,7.35,0,0,0,2.92-2.41,9.64,9.64,0,0,0,1.36-3.08,26.26,26.26,0,0,0,.56-3.08,2.11,2.11,0,0,1,1-1.76,4.44,4.44,0,0,1,2.4-.56,3.68,3.68,0,0,1,2.52.76,4,4,0,0,1,.84,3,12.87,12.87,0,0,1-2.12,7.17,14.66,14.66,0,0,1-6,5.11A20.93,20.93,0,0,1,120.84,66.67Z" transform="translate(-5.4 -7.22)"/>
    <path class="cls-1" d="M150.2,66.18a4.72,4.72,0,0,1-2.28-.59,2,2,0,0,1-1.08-1.81V10a1.86,1.86,0,0,1,1.08-1.76,5,5,0,0,1,4.6,0,1.88,1.88,0,0,1,1,1.76V36.5L175.08,8.67a2.33,2.33,0,0,1,2-1,3.53,3.53,0,0,1,1.76.52,5.09,5.09,0,0,1,1.44,1.28,2.75,2.75,0,0,1,.56,1.64,3.86,3.86,0,0,1-.08.72,1.51,1.51,0,0,1-.4.73L164,33l19,28.8a2.1,2.1,0,0,1,.4,1.2,2.76,2.76,0,0,1-.56,1.65,4.53,4.53,0,0,1-1.44,1.23,4,4,0,0,1-1.92.48A2.73,2.73,0,0,1,178.2,66a2.9,2.9,0,0,1-1.12-1L159.56,38.67l-6,7.43V63.78a2,2,0,0,1-1,1.81A4.68,4.68,0,0,1,150.2,66.18Z" transform="translate(-5.4 -7.22)"/>
    <path class="cls-2" d="M192.36,66.18a3.34,3.34,0,0,1-2.2-.68,2,2,0,0,1-.84-1.64V10.1a2,2,0,0,1,1-1.8,3.84,3.84,0,0,1,2.08-.6h13.76a29,29,0,0,1,8.12,1.08,11,11,0,0,1,5.92,4c1.46,2,2.2,4.83,2.2,8.56a17.4,17.4,0,0,1-1.84,8.4,10.32,10.32,0,0,1-5,4.72,14.18,14.18,0,0,1,4.32,2.6,11.3,11.3,0,0,1,2.88,4.24,18.57,18.57,0,0,1,1,6.76v1.44c0,4.11-.7,7.38-2.08,9.8A12.15,12.15,0,0,1,216,64.59,19.82,19.82,0,0,1,208,66.18ZM196,31.7h10q5,0,7.28-2.2c1.54-1.46,2.32-3.85,2.32-7.16a9.38,9.38,0,0,0-1.24-5.16A6.64,6.64,0,0,0,211,14.54a16,16,0,0,0-5.16-.76H196Zm0,28.4h10.8q4.88,0,7.56-2.64c1.78-1.76,2.68-4.53,2.68-8.32V47.78c0-3.84-.9-6.54-2.68-8.11s-4.31-2.37-7.56-2.37H196Z" transform="translate(-5.4 -7.22)"/>
    <path class="cls-2" d="M232.6,66.18a5.32,5.32,0,0,1-1.8-.36,3.84,3.84,0,0,1-1.6-1,2,2,0,0,1-.6-1.44,2.39,2.39,0,0,1,.08-.64l16.4-53.2a2.63,2.63,0,0,1,1.52-1.76,6,6,0,0,1,2.56-.56,5.82,5.82,0,0,1,2.64.6,2.78,2.78,0,0,1,1.52,1.72l16.32,53.2a1.42,1.42,0,0,1,.16.56,1.93,1.93,0,0,1-.68,1.44,5.28,5.28,0,0,1-1.64,1,4.74,4.74,0,0,1-1.84.4,3,3,0,0,1-1.52-.36,1.83,1.83,0,0,1-.88-1.15l-3.6-11.93h-21l-3.44,11.93a1.82,1.82,0,0,1-.92,1.15A3.48,3.48,0,0,1,232.6,66.18Zm7.6-19h17.92l-9-30.08Z" transform="translate(-5.4 -7.22)"/>
    <path class="cls-2" d="M293.32,66.67a21,21,0,0,1-8.56-1.73,13.42,13.42,0,0,1-6.24-5.56q-2.32-3.84-2.32-10.16V25.14q0-6.32,2.36-10.16a13.71,13.71,0,0,1,6.28-5.56A21.15,21.15,0,0,1,293.4,7.7a21.45,21.45,0,0,1,9.28,1.84,14.35,14.35,0,0,1,5.92,5,12.67,12.67,0,0,1,2.08,7.09c0,1.49-.28,2.47-.84,3a3.85,3.85,0,0,1-2.52.71,4,4,0,0,1-2.44-.63A2.25,2.25,0,0,1,304,23a18.53,18.53,0,0,0-.44-2.76,8.36,8.36,0,0,0-1.44-3A8,8,0,0,0,299,14.74a12.8,12.8,0,0,0-5.4-1c-3.42,0-6,.92-7.88,2.76s-2.76,4.71-2.76,8.6V49.22c0,3.9.93,6.76,2.8,8.6s4.56,2.77,8.08,2.77a12.4,12.4,0,0,0,5.32-1A7.35,7.35,0,0,0,302,57.22a9.64,9.64,0,0,0,1.36-3.08,26.26,26.26,0,0,0,.56-3.08,2.11,2.11,0,0,1,1-1.76,4.44,4.44,0,0,1,2.4-.56,3.68,3.68,0,0,1,2.52.76,4,4,0,0,1,.84,3,12.87,12.87,0,0,1-2.12,7.17,14.66,14.66,0,0,1-6,5.11A20.93,20.93,0,0,1,293.32,66.67Z" transform="translate(-5.4 -7.22)"/>
    <path class="cls-2" d="M322.68,66.18a4.72,4.72,0,0,1-2.28-.59,2,2,0,0,1-1.08-1.81V10a1.86,1.86,0,0,1,1.08-1.76,5,5,0,0,1,4.6,0A1.88,1.88,0,0,1,326,10V36.5L347.56,8.67a2.33,2.33,0,0,1,2-1,3.53,3.53,0,0,1,1.76.52,5.09,5.09,0,0,1,1.44,1.28,2.75,2.75,0,0,1,.56,1.64,3.86,3.86,0,0,1-.08.72,1.51,1.51,0,0,1-.4.73L336.52,33l19,28.8a2.1,2.1,0,0,1,.4,1.2,2.76,2.76,0,0,1-.56,1.65,4.53,4.53,0,0,1-1.44,1.23,4,4,0,0,1-1.92.48,2.73,2.73,0,0,1-1.28-.32,2.9,2.9,0,0,1-1.12-1L332,38.67l-6,7.43V63.78a2,2,0,0,1-1,1.81A4.68,4.68,0,0,1,322.68,66.18Z" transform="translate(-5.4 -7.22)"/>
  </g>
</svg>
